<?xml version="1.0" encoding="UTF-8"?> <!-- Generator: Adobe Illustrator 23.0.0, SVG Export Plug-In . SVG Version: 6.00 Build 0) --> <svg xmlns="http://www.w3.org/2000/svg" xmlns:xlink="http://www.w3.org/1999/xlink" version="1.1" id="Capa_1" x="0px" y="0px" viewBox="0 0 300 78.5" style="enable-background:new 0 0 300 78.5;" xml:space="preserve"> <style type="text/css"> .st0{fill:#000003;} </style> <g> <g> <path class="st0" d="M110.6,26.1h7.8v2.3h2.3V30h3.8v-1.5h2.3v-2.3h5.5v19.4h-3.9v3.9h-5.5v-4.6h-1.5V47h-4.7v2.3h-10.1V30h3.9 V26.1z M112.2,27.7V44h7v-4.6h2.3v2.3h2.4v-2.3h2.3V37h2.3V44h2.4V27.7h-2.4V30h-2.3v2.3h-2.3v2.3h-2.3v-2.3h-2.3V30h-2.3v-2.3 H112.2z"></path> <path class="st0" d="M135.4,26.2h17.1v2.3h2.3v17.1H151v3.9h-7.8v-3.9h-1.5v3.9h-10.1V30.1h3.8V26.2z M137,27.8v16.2h7v-4.6h4.6 v4.6h4.6v-4.6h-2.3v-2.3h2.3v-7h-2.3v-2.3H137z M144,32.5h4.6V37c0,0,0,0.1-0.1,0.1H144V32.5z"></path> <path class="st0" d="M157.9,37.7h7.8v7.8h-3.8v3.9h-7.8v-7.8h3.8V37.7z M159.5,39.3V44h4.7v-4.6c0,0,0-0.1-0.1-0.1H159.5z"></path> <path class="st0" d="M174.9,26.1h17.1v2.3h2.3v10.1h-2.3v2.3h-1.6v1.5H188v3.1h-6.9v3.9h-10.1V30h3.9V26.1z M176.4,27.7V44h7v-4.6 h6.9V37h2.3v-7h-2.3v-2.3H176.4z M183.4,32.4h4.6V37h-4.6V32.4z"></path> <path class="st0" d="M197.4,26.2h10.1v19.4h-3.9v3.8h-10.1V30h3.9V26.2z M199,27.7V44h7V27.7H199z"></path> <path class="st0" d="M210.6,26.2h7.8v2.3h3.8v-2.3h7.8V34h-2.3v3.8h2.3v7.8h-3.8v3.8h-7.8v-2.3h-3.8v2.3h-7.8v-7.8h2.3v-3.8h-2.3 v-7.8h3.8V26.2z M212.2,27.8v4.7h2.3v2.3h2.3V37h-2.3v2.4h-2.3V44h4.7v-2.3h2.3v-2.3h2.3v2.3h2.3V44h4.7v-4.6h-2.3V37h-2.3v-2.3 h2.3v-2.3h2.3v-4.7h-4.7v2.3h-2.2c0,0-0.1,0-0.1,0.1v2.2h-2.3v-2.3h-2.3v-2.3H212.2z"></path> <path class="st0" d="M233.2,26.2h19.4V34h-3.9v3.8h3.9v7.8h-3.9v3.8h-19.4V30.1h3.9V26.2z M234.8,27.8V44H251v-4.7h-9.3v-2.3h4.7 v-2.4h-4.7v-2.3h9.3v-4.7H234.8z"></path> <path class="st0" d="M255.8,26.2h10.1v11.6h6.9v7.8H269v3.8h-17.1V30h3.9V26.2z M257.4,27.7V44h13.9v-4.7h-6.9V27.7H257.4z"></path> </g> </g> <path class="st0" d="M40.3,8.5h21.4v6.4h10.4V8.5h21.5V30h-6.4v10.4h6.4v21.5H83.1v10.6H61.6v-6.4H51.2v6.4H29.8V51h6.4V40.6h-6.4 V19.1h10.5V8.5z M44.6,12.9v12.8H51v6.4h6.4v6.3H51v6.5h-6.4v12.8h12.9v-6.4h6.4v-6.4h6.3v6.4h6.4v6.4h12.8V44.8h-6.4v-6.5h-6.4 v-6.3h6.4v-6.4h6.4V12.9H76.4v6.4h-6.2c-0.1,0-0.2,0.1-0.2,0.2v6.2h-6.3v-6.4h-6.4v-6.4H44.6z"></path> </svg> 